<?xml version="1.0" encoding="UTF-8"?>
<svg id="a" data-name="图层 1" xmlns="http://www.w3.org/2000/svg" viewBox="0 0 791.94 266.32">
  <g>
    <path d="m169.81,42.06v140.44h-32.12V42.06h-45.62V15.93h123.38v26.12h-45.62Z" style="fill: green;"/>
    <path d="m169.81,42.06v140.44h-32.12V42.06h-45.62V15.93h123.38v26.12h-45.62Z" style="fill: none; stroke: green; stroke-miterlimit: 10;"/>
  </g>
  <g>
    <path d="m353.95,173.93c-7.4,2.89-14.55,5.04-21.48,6.45s-14.12,2.11-21.6,2.11c-11.98,0-22.58-1.72-31.8-5.15-9.22-3.43-16.99-8.54-23.32-15.32s-11.13-15.2-14.4-25.24c-3.27-10.05-4.91-21.72-4.91-35.03s1.78-25.78,5.35-36.4c3.57-10.62,8.66-19.59,15.29-26.91s14.67-12.9,24.15-16.74c9.47-3.84,20.12-5.76,31.93-5.76,3.82,0,7.41.08,10.77.25s6.65.48,9.88.93,6.5,1.05,9.81,1.79,6.76,1.7,10.33,2.85v30.26c-7.22-3.3-14.1-5.66-20.64-7.06s-12.49-2.11-17.84-2.11c-7.91,0-14.66,1.38-20.27,4.15-5.6,2.77-10.21,6.65-13.83,11.66s-6.27,10.96-7.97,17.86-2.55,14.49-2.55,22.76c0,8.77.87,16.6,2.61,23.51s4.44,12.75,8.09,17.55,8.33,8.45,14.02,10.97c5.69,2.52,12.45,3.78,20.26,3.78,2.8,0,5.84-.27,9.11-.81s6.59-1.24,9.95-2.11,6.67-1.9,9.95-3.1,6.31-2.42,9.11-3.66v28.53Z" style="fill: blue;"/>
    <path d="m353.95,173.93c-7.4,2.89-14.55,5.04-21.48,6.45s-14.12,2.11-21.6,2.11c-11.98,0-22.58-1.72-31.8-5.15-9.22-3.43-16.99-8.54-23.32-15.32s-11.13-15.2-14.4-25.24c-3.27-10.05-4.91-21.72-4.91-35.03s1.78-25.78,5.35-36.4c3.57-10.62,8.66-19.59,15.29-26.91s14.67-12.9,24.15-16.74c9.47-3.84,20.12-5.76,31.93-5.76,3.82,0,7.41.08,10.77.25s6.65.48,9.88.93,6.5,1.05,9.81,1.79,6.76,1.7,10.33,2.85v30.26c-7.22-3.3-14.1-5.66-20.64-7.06s-12.49-2.11-17.84-2.11c-7.91,0-14.66,1.38-20.27,4.15-5.6,2.77-10.21,6.65-13.83,11.66s-6.27,10.96-7.97,17.86-2.55,14.49-2.55,22.76c0,8.77.87,16.6,2.61,23.51s4.44,12.75,8.09,17.55,8.33,8.45,14.02,10.97c5.69,2.52,12.45,3.78,20.26,3.78,2.8,0,5.84-.27,9.11-.81s6.59-1.24,9.95-2.11,6.67-1.9,9.95-3.1,6.31-2.42,9.11-3.66v28.53Z" style="fill: none; stroke: blue; stroke-miterlimit: 10;"/>
  </g>
  <g>
    <path d="m442.52,111.54v-25.01h59.27v85.86c-7.65,3.44-15.63,5.99-23.96,7.63s-17.38,2.47-27.15,2.47c-11.55,0-21.94-1.73-31.16-5.18-9.22-3.45-17.06-8.59-23.52-15.4-6.46-6.81-11.41-15.27-14.85-25.37-3.44-10.1-5.16-21.81-5.16-35.11s1.81-25.38,5.42-35.98c3.61-10.59,8.88-19.56,15.8-26.91s15.42-12.96,25.48-16.82,21.56-5.79,34.48-5.79c7.65,0,15.1.64,22.37,1.91s14.51,2.98,21.73,5.11v29.94c-6.29-2.87-13.24-5.23-20.84-7.08s-15.27-2.77-23-2.77-14.71,1.31-20.7,3.94c-5.99,2.63-11,6.36-15.04,11.21-4.04,4.84-7.1,10.8-9.18,17.86s-3.12,15.03-3.12,23.9.81,16.24,2.42,23.09,4.23,12.69,7.84,17.5,8.27,8.48,13.95,11.03,12.61,3.81,20.77,3.81c1.96,0,3.66-.06,5.1-.18s2.8-.3,4.08-.55,2.49-.53,3.63-.86,2.36-.7,3.64-1.11v-41.14h-28.3Z" style="fill: #94beff;"/>
    <path d="m442.52,111.54v-25.01h59.27v85.86c-7.65,3.44-15.63,5.99-23.96,7.63s-17.38,2.47-27.15,2.47c-11.55,0-21.94-1.73-31.16-5.18-9.22-3.45-17.06-8.59-23.52-15.4-6.46-6.81-11.41-15.27-14.85-25.37-3.44-10.1-5.16-21.81-5.16-35.11s1.81-25.38,5.42-35.98c3.61-10.59,8.88-19.56,15.8-26.91s15.42-12.96,25.48-16.82,21.56-5.79,34.48-5.79c7.65,0,15.1.64,22.37,1.91s14.51,2.98,21.73,5.11v29.94c-6.29-2.87-13.24-5.23-20.84-7.08s-15.27-2.77-23-2.77-14.71,1.31-20.7,3.94c-5.99,2.63-11,6.36-15.04,11.21-4.04,4.84-7.1,10.8-9.18,17.86s-3.12,15.03-3.12,23.9.81,16.24,2.42,23.09,4.23,12.69,7.84,17.5,8.27,8.48,13.95,11.03,12.61,3.81,20.77,3.81c1.96,0,3.66-.06,5.1-.18s2.8-.3,4.08-.55,2.49-.53,3.63-.86,2.36-.7,3.64-1.11v-41.14h-28.3Z" style="fill: none; stroke: #ffc800; stroke-miterlimit: 10;"/>
  </g>
  <g>
    <path d="m622.33,182.49l-9.17-32.88h-58.12l-9.42,32.88h-31.09l49.31-166.56h43.84l49.31,166.56h-34.66Zm-37.86-135.98l-21.91,77.48h43.58l-21.67-77.48Z" style="fill: red;"/>
    <path d="m622.33,182.49l-9.17-32.88h-58.12l-9.42,32.88h-31.09l49.31-166.56h43.84l49.31,166.56h-34.66Zm-37.86-135.98l-21.91,77.48h43.58l-21.67-77.48Z" style="fill: none; stroke: red; stroke-miterlimit: 10;"/>
  </g>
  <g>
    <path d="m745.81,126.32v56.18h-32.12v-56.18h-45.62v-10.45h123.38v10.45h-45.62Z" style="fill: green;"/>
    <path d="m745.81,126.32v56.18h-32.12v-56.18h-45.62v-10.45h123.38v10.45h-45.62Z" style="fill: none; stroke: green; stroke-miterlimit: 10;"/>
  </g>
  <g>
    <path d="m730.52,73.3v-15.01h59.27v51.52c-7.65,2.07-15.63,3.59-23.96,4.58s-17.38,1.48-27.15,1.48c-11.55,0-21.94-1.04-31.16-3.11-9.22-2.07-17.06-5.15-23.52-9.24-6.46-4.09-11.41-9.16-14.85-15.22-3.44-6.06-5.16-13.08-5.16-21.06s1.81-15.23,5.42-21.59c3.61-6.36,8.88-11.74,15.8-16.15s15.42-7.77,25.48-10.09,21.56-3.48,34.48-3.48c7.65,0,15.1.38,22.37,1.15s14.51,1.79,21.73,3.07v17.96c-6.29-1.72-13.24-3.14-20.84-4.25s-15.27-1.66-23-1.66-14.71.79-20.7,2.37c-5.99,1.58-11,3.82-15.04,6.72-4.04,2.91-7.1,6.48-9.18,10.72s-3.12,9.02-3.12,14.34.81,9.74,2.42,13.86,4.23,7.61,7.84,10.5,8.27,5.09,13.95,6.62,12.61,2.29,20.77,2.29c1.96,0,3.66-.04,5.1-.11s2.8-.18,4.08-.33,2.49-.32,3.63-.52,2.36-.42,3.64-.67v-24.69h-28.3Z" style="fill: #3f8bff;"/>
    <path d="m730.52,73.3v-15.01h59.27v51.52c-7.65,2.07-15.63,3.59-23.96,4.58s-17.38,1.48-27.15,1.48c-11.55,0-21.94-1.04-31.16-3.11-9.22-2.07-17.06-5.15-23.52-9.24-6.46-4.09-11.41-9.16-14.85-15.22-3.44-6.06-5.16-13.08-5.16-21.06s1.81-15.23,5.42-21.59c3.61-6.36,8.88-11.74,15.8-16.15s15.42-7.77,25.48-10.09,21.56-3.48,34.48-3.48c7.65,0,15.1.38,22.37,1.15s14.51,1.79,21.73,3.07v17.96c-6.29-1.72-13.24-3.14-20.84-4.25s-15.27-1.66-23-1.66-14.71.79-20.7,2.37c-5.99,1.58-11,3.82-15.04,6.72-4.04,2.91-7.1,6.48-9.18,10.72s-3.12,9.02-3.12,14.34.81,9.74,2.42,13.86,4.23,7.61,7.84,10.5,8.27,5.09,13.95,6.62,12.61,2.29,20.77,2.29c1.96,0,3.66-.04,5.1-.11s2.8-.18,4.08-.33,2.49-.32,3.63-.52,2.36-.42,3.64-.67v-24.69h-28.3Z" style="fill: none; stroke: #ffc800; stroke-miterlimit: 10;"/>
  </g>
  <line x1="67" y1="182.49" x2="67" y2="15.93" style="fill: none; stroke: #000; stroke-linecap: square; stroke-miterlimit: 10; stroke-width: 3px;"/>
  <line x1="67" y1="182.49" x2="47" y2="182.49" style="fill: none; stroke: #000; stroke-linecap: square; stroke-miterlimit: 10; stroke-width: 3px;"/>
  <text transform="translate(23 191.49)" style="font-family: TimesNewRomanPS-BoldMT, &apos;Times New Roman&apos;; font-size: 30px; font-weight: 700; isolation: isolate;"><tspan x="0" y="0">0</tspan></text>
  <line x1="67" y1="99.21" x2="47" y2="99.21" style="fill: none; stroke: #000; stroke-linecap: square; stroke-miterlimit: 10; stroke-width: 3px;"/>
  <text transform="translate(0 108.21)" style="font-family: TimesNewRomanPS-BoldMT, &apos;Times New Roman&apos;; font-size: 30px; font-weight: 700; isolation: isolate;"><tspan x="0" y="0">0.5</tspan></text>
  <line x1="67" y1="15.93" x2="47" y2="15.93" style="fill: none; stroke: #000; stroke-linecap: square; stroke-miterlimit: 10; stroke-width: 3px;"/>
  <text transform="translate(0 24.93)" style="font-family: TimesNewRomanPS-BoldMT, &apos;Times New Roman&apos;; font-size: 30px; font-weight: 700; isolation: isolate;"><tspan x="0" y="0">1.0</tspan></text>
  <g>
    <line x1="154" y1="197.49" x2="730" y2="197.49" style="fill: none; stroke: #000; stroke-linecap: square; stroke-miterlimit: 10; stroke-width: 3px;"/>
    <line x1="154" y1="197.49" x2="154" y2="217.49" style="fill: none; stroke: #000; stroke-linecap: square; stroke-miterlimit: 10; stroke-width: 3px;"/>
  </g>
  <text transform="translate(147 256.49)" style="font-family: TimesNewRomanPS-BoldMT, &apos;Times New Roman&apos;; font-size: 30px; font-weight: 700; isolation: isolate;"><tspan x="0" y="0">1</tspan></text>
  <line x1="298" y1="197.49" x2="298" y2="217.49" style="fill: none; stroke: #000; stroke-linecap: square; stroke-miterlimit: 10; stroke-width: 3px;"/>
  <text transform="translate(291 256.49)" style="font-family: TimesNewRomanPS-BoldMT, &apos;Times New Roman&apos;; font-size: 30px; font-weight: 700; isolation: isolate;"><tspan x="0" y="0">2</tspan></text>
  <line x1="442" y1="197.49" x2="442" y2="217.49" style="fill: none; stroke: #000; stroke-linecap: square; stroke-miterlimit: 10; stroke-width: 3px;"/>
  <text transform="translate(435 256.49)" style="font-family: TimesNewRomanPS-BoldMT, &apos;Times New Roman&apos;; font-size: 30px; font-weight: 700; isolation: isolate;"><tspan x="0" y="0">3</tspan></text>
  <line x1="586" y1="197.49" x2="586" y2="217.49" style="fill: none; stroke: #000; stroke-linecap: square; stroke-miterlimit: 10; stroke-width: 3px;"/>
  <text transform="translate(579 256.49)" style="font-family: TimesNewRomanPS-BoldMT, &apos;Times New Roman&apos;; font-size: 30px; font-weight: 700; isolation: isolate;"><tspan x="0" y="0">4</tspan></text>
  <line x1="730" y1="197.49" x2="730" y2="217.49" style="fill: none; stroke: #000; stroke-linecap: square; stroke-miterlimit: 10; stroke-width: 3px;"/>
  <text transform="translate(723 256.49)" style="font-family: TimesNewRomanPS-BoldMT, &apos;Times New Roman&apos;; font-size: 30px; font-weight: 700; isolation: isolate;"><tspan x="0" y="0">5</tspan></text>
</svg>